<svg xmlns="http://www.w3.org/2000/svg" width="1024" height="1024" viewBox="0 0 1024 1024">
  <!-- Background -->
  <rect width="1024" height="1024" fill="#6366F1" rx="200" ry="200"/>
  
  <!-- Game Controller Icon (based on Material Icons videogame_asset) -->
  <g transform="translate(162, 262) scale(2.8)">
    <path fill="white" d="M192 64H64C28.7 64 0 92.7 0 128v128c0 35.3 28.7 64 64 64h128c35.3 0 64-28.7 64-64V128c0-35.3-28.7-64-64-64zM48 176c0-8.8 7.2-16 16-16h16v-16c0-8.8 7.2-16 16-16s16 7.2 16 16v16h16c8.8 0 16 7.2 16 16s-7.2 16-16 16H112v16c0 8.8-7.2 16-16 16s-16-7.2-16-16v-16H64c-8.8 0-16-7.2-16-16zm120 56c-13.3 0-24-10.7-24-24s10.7-24 24-24 24 10.7 24 24-10.7 24-24 24zm48-48c-13.3 0-24-10.7-24-24s10.7-24 24-24 24 10.7 24 24-10.7 24-24 24z"/>
  </g>
</svg>
